<svg width="240" height="240" viewBox="0 0 240 240" xmlns="http://www.w3.org/2000/svg">
  <g fill="none" stroke="#3f5228" stroke-width="1.6" stroke-linecap="round" stroke-linejoin="round" opacity="0.35">
    <!-- heart -->
    <path d="M40 55 C33 45 18 47 18 60 C18 72 40 88 40 88 C40 88 62 72 62 60 C62 47 47 45 40 55 Z" transform="translate(0,0) rotate(-6 40 66)" />

    <!-- ring -->
    <circle cx="170" cy="45" r="16" />
    <path d="M164 30 L170 18 L176 30" />
    <path d="M167 24 L173 24" />

    <!-- envelope -->
    <rect x="30" y="150" width="52" height="36" rx="3" />
    <path d="M30 152 L56 174 L82 152" />

    <!-- small flower sprig -->
    <g transform="translate(150,150)">
      <path d="M0 40 C4 24 2 10 -6 0" />
      <circle cx="-6" cy="0" r="4.5" />
      <circle cx="2" cy="-6" r="4" />
      <circle cx="-13" cy="-6" r="4" />
      <circle cx="-6" cy="-10" r="4" />
    </g>

    <!-- second small ring, offset -->
    <circle cx="205" cy="200" r="11" />
    <path d="M201 190 L205 182 L209 190" />

    <!-- second small heart, offset -->
    <path d="M195 90 C191 84 182 85 182 93 C182 100 195 110 195 110 C195 110 208 100 208 93 C208 85 199 84 195 90 Z" />

    <!-- leaf accent -->
    <path d="M100 210 C112 200 124 200 132 208 C124 214 110 216 100 210 Z" />
    <path d="M100 210 L132 208" />
  </g>
</svg>
