<svg width="1000" height="1000" viewBox="0 0 1000 1000" xmlns="http://www.w3.org/2000/svg">
  <style>
    path, circle, ellipse { vector-effect: non-scaling-stroke; }
  </style>
  <defs>
    <!-- Every shape below is hand-drawn as an irregular, asymmetric bezier
         path — no circle/rect primitives, no icon-library geometry. Pen
         imperfection is the point: lobes, petals and curves are
         deliberately uneven rather than mirrored. -->

    <g id="i-heart-a" fill="none" stroke="#3f5228" stroke-width="2" stroke-linecap="round" stroke-linejoin="round">
      <path d="M14 7 C9 -1 -2 1 -1 10 C0 15 4 18 8 22 C10 24 12 27 15 31 C19 26 23 22 27 18 C30 15 31 9 27 5 C23 0 16 0 14 7 Z"/>
    </g>
    <g id="i-heart-b" fill="none" stroke="#3f5228" stroke-width="2" stroke-linecap="round" stroke-linejoin="round">
      <path d="M9 5 C6 -1 -2 0 -2 7 C-2 11 1 14 5 17 C7 19 8 20 10 23 C13 19 17 16 19 13 C21 10 21 5 17 3 C14 1 10 1 9 5 Z"/>
      <path d="M-6 -4 L13 22"/>
      <path d="M9 15 L13 22 L5 21"/>
    </g>
    <g id="i-rings" fill="none" stroke="#3f5228" stroke-width="2" stroke-linecap="round" stroke-linejoin="round">
      <path d="M10 4 C16 3 20 7 19 13 C18 19 12 22 7 20 C2 18 1 12 4 8 C6 5 8 4 10 4 Z"/>
      <path d="M25 6 C31 4 36 8 35 14 C34 20 27 23 22 20 C18 17 18 11 21 8 C22 6 23 6 25 6 Z"/>
    </g>
    <g id="i-ring-sparkle" fill="none" stroke="#3f5228" stroke-width="2" stroke-linecap="round" stroke-linejoin="round">
      <path d="M12 6 C19 4 25 9 24 16 C23 23 15 27 9 24 C3 21 2 13 6 9 C8 7 10 6 12 6 Z"/>
      <path d="M9 3 C10 -3 11 -6 12 -9 C13 -6 15 -2 17 3"/>
      <path d="M10 -2 L15 -1"/>
      <path d="M-2 -4 L0 0 L-4 1 Z"/>
    </g>
    <g id="i-ring-box" fill="none" stroke="#3f5228" stroke-width="2" stroke-linecap="round" stroke-linejoin="round">
      <path d="M-1 17 C-2 24 0 29 3 30 C12 32 24 31 32 29 C35 27 36 22 34 16"/>
      <path d="M-1 17 C-3 10 4 4 13 4 C22 3 33 7 34 16"/>
      <path d="M-1 17 C8 20 27 20 34 16"/>
      <path d="M13 12 C17 10 21 13 20 17 C19 20 14 21 12 18 C11 16 11 13 13 12 Z"/>
      <path d="M11 3 C12 -2 13 -5 14 -8 C16 -5 17 -1 18 3"/>
    </g>
    <g id="i-envelope-heart" fill="none" stroke="#3f5228" stroke-width="2" stroke-linecap="round" stroke-linejoin="round">
      <path d="M1 2 C0 9 -1 17 1 23 C10 25 25 25 33 23 C35 16 34 8 33 2 C24 0 9 0 1 2 Z"/>
      <path d="M1 2 C8 8 12 12 17 15 C21 12 26 8 33 2"/>
      <path d="M15 8 C13 5 8 6 9 10 C10 13 14 16 17 18 C19 16 22 13 22 10 C22 6 18 5 15 8 Z"/>
    </g>
    <g id="i-letter" fill="none" stroke="#3f5228" stroke-width="2" stroke-linecap="round" stroke-linejoin="round">
      <path d="M0 3 C-1 13 -1 25 0 33 C9 35 19 35 27 33 C28 24 28 12 27 3 C18 1 8 1 0 3 Z"/>
      <path d="M6 11 C10 10 17 10 21 11"/>
      <path d="M6 16 C11 15 16 15 21 17"/>
      <path d="M15 23 C13 20 9 21 9 24 C9 27 13 29 15 31 C17 29 20 27 20 24 C20 21 17 20 15 23 Z"/>
    </g>
    <g id="i-bells" fill="none" stroke="#3f5228" stroke-width="2" stroke-linecap="round" stroke-linejoin="round">
      <path d="M18 4 C13 2 10 6 12 10 C6 12 3 18 3 23 C8 25 17 25 21 23 C20 17 19 12 15 10 C17 7 20 6 18 4 Z"/>
      <path d="M11 25 C11 27 13 28 14 26"/>
      <path d="M38 8 C34 6 31 10 33 13 C28 15 26 20 26 25 C30 27 38 27 41 25 C40 20 39 15 36 13 C37 10 40 10 38 8 Z"/>
      <path d="M32 27 C32 29 34 30 35 28"/>
      <path d="M17 3 C20 -3 27 -5 33 -2 C31 0 28 1 27 4"/>
      <path d="M27 -3 C25 -5 26 -8 29 -8 C31 -8 32 -5 30 -3 C29 -2 28 -2 27 -3 Z"/>
    </g>
    <g id="i-camera" fill="none" stroke="#3f5228" stroke-width="2" stroke-linecap="round" stroke-linejoin="round">
      <path d="M1 12 C0 20 0 27 2 32 C13 34 29 34 37 32 C39 26 39 18 37 12 C35 9 30 9 27 9 C25 5 22 2 19 2 C16 2 13 5 12 9 C8 9 3 9 1 12 Z"/>
      <path d="M19 12 C25 11 30 16 29 22 C28 27 22 30 17 28 C13 26 12 20 15 16 C16 14 17 13 19 12 Z"/>
      <path d="M20 16 C23 15 26 18 25 21"/>
      <path d="M31 14 C32 13 34 13 34 15 C34 16 32 17 31 16 C30 15 30 15 31 14 Z"/>
    </g>
    <g id="i-dress" fill="none" stroke="#3f5228" stroke-width="2" stroke-linecap="round" stroke-linejoin="round">
      <path d="M13 -6 C12 -3 12 -1 13 1 C10 2 8 4 9 7"/>
      <path d="M21 -7 C22 -4 22 -1 21 1 C24 2 26 4 25 7"/>
      <path d="M9 7 C12 10 21 10 25 7"/>
      <path d="M9 7 C4 14 1 23 -2 34 C3 40 12 45 17 46 C22 44 30 40 35 34 C31 22 28 13 25 7"/>
      <path d="M0 30 C7 35 26 34 33 29"/>
      <path d="M-2 34 C8 38 27 38 35 34"/>
    </g>
    <g id="i-shoe" fill="none" stroke="#3f5228" stroke-width="2" stroke-linecap="round" stroke-linejoin="round">
      <path d="M1 19 C0 14 3 9 8 8 C9 3 14 -1 18 2 C21 -1 26 1 25 6 C31 5 34 12 33 18 C34 21 33 25 29 26 C21 28 10 27 5 25 C2 24 1 22 1 19 Z"/>
      <path d="M8 22 C13 24 22 24 27 22"/>
      <path d="M6 12 C7 9 10 8 12 10"/>
    </g>
    <g id="i-bouquet" fill="none" stroke="#3f5228" stroke-width="2" stroke-linecap="round" stroke-linejoin="round">
      <path d="M15 38 C12 30 14 22 10 12 C13 8 16 6 15 2"/>
      <path d="M15 38 C17 31 15 21 20 11 C18 7 16 5 18 1"/>
      <path d="M15 38 C13 28 21 20 25 13 C24 9 24 6 27 3"/>
      <path d="M15 15 C11 3 3 2 4 -3 C5 -7 12 -6 12 -1 C14 -6 21 -5 20 0 C20 4 15 8 15 15 Z"/>
      <path d="M24 12 C22 4 27 0 30 3 C32 5 30 9 27 10"/>
      <path d="M9 30 C6 28 3 29 1 32 C4 34 8 34 10 32"/>
      <path d="M9 30 C11 27 15 27 17 30"/>
    </g>
    <g id="i-rose" fill="none" stroke="#3f5228" stroke-width="2" stroke-linecap="round" stroke-linejoin="round">
      <path d="M10 46 C7 34 9 24 5 13"/>
      <path d="M6 26 C1 25 -2 28 -3 32 C0 33 4 32 6 29"/>
      <path d="M10 2 C6 -2 8 -7 12 -6 C10 -9 14 -12 17 -9 C21 -11 24 -7 21 -5 C25 -5 25 0 21 1 C24 3 21 7 17 5 C18 8 13 10 11 7 C9 9 5 6 8 4 C5 5 3 1 6 -1 C7 0 9 1 10 2 Z"/>
    </g>
    <g id="i-blossom" fill="none" stroke="#3f5228" stroke-width="2" stroke-linecap="round" stroke-linejoin="round">
      <path d="M0 0 C-2 -5 -1 -9 1 -11 C4 -9 4 -4 1 1"/>
      <path d="M0 0 C5 -2 9 -1 11 2 C9 5 4 5 -1 2"/>
      <path d="M0 0 C3 4 3 9 0 11 C-3 9 -4 4 -1 1"/>
      <path d="M0 0 C-5 2 -9 1 -11 -2 C-9 -5 -4 -5 1 -2"/>
      <path d="M0 0 C3 -3 3 -3 0 0 Z"/>
      <path d="M2 0 C2 1 1 2 0 2 C-1 2 -2 1 -2 0 C-2 -1 -1 -2 0 -2 C1 -2 2 -1 2 0 Z"/>
    </g>
    <g id="i-cupcake" fill="none" stroke="#3f5228" stroke-width="2" stroke-linecap="round" stroke-linejoin="round">
      <path d="M5 19 C4 24 5 30 8 34 C13 36 21 36 25 34 C27 30 27 24 26 19"/>
      <path d="M5 19 C2 19 1 15 3 13 C2 9 6 6 9 8 C10 4 16 3 18 7 C22 4 27 8 24 11 C28 11 28 17 24 19 C18 20 10 20 5 19 Z"/>
      <path d="M5 19 C11 21 20 21 26 19"/>
      <path d="M14 8 C14 4 13 1 15 -3 C17 0 17 4 16 8"/>
      <path d="M15 -4 C13 -5 13 -8 15 -8 C17 -8 17 -5 15 -4 Z"/>
      <path d="M9 24 L11 26 M15 22 L15 25 M20 24 L21 27"/>
    </g>
    <g id="i-cake" fill="none" stroke="#3f5228" stroke-width="2" stroke-linecap="round" stroke-linejoin="round">
      <path d="M1 41 C0 36 1 32 3 29 C13 27 25 27 35 29 C37 32 38 36 37 41 C25 43 13 43 1 41 Z"/>
      <path d="M5 29 C4 25 5 22 7 19 C15 17 23 17 31 19 C33 22 34 25 33 29"/>
      <path d="M9 19 C8 16 9 13 11 11 C16 9 22 9 27 11 C29 13 30 16 29 19"/>
      <path d="M3 29 C11 31 27 31 35 29 M7 19 C13 21 25 21 31 19"/>
      <path d="M18 11 C18 6 17 3 18 -1"/>
      <path d="M18 -3 C16 -3 15 -6 17 -7 C19 -8 21 -6 20 -4 C19 -3 19 -3 18 -3 Z"/>
    </g>
    <g id="i-champagne" fill="none" stroke="#3f5228" stroke-width="2" stroke-linecap="round" stroke-linejoin="round">
      <path d="M3 1 C2 6 4 10 9 12 C14 14 19 11 20 6 C21 3 20 1 19 0 C14 2 8 2 3 1 Z"/>
      <path d="M11 12 C11 17 10 21 11 26"/>
      <path d="M4 30 C7 28 15 28 18 30"/>
      <path d="M11 26 C9 27 6 28 4 30 M11 26 C13 27 16 28 18 30"/>
      <path d="M8 8 C7 6 8 5 9 6 M13 9 C12 7 13 6 14 7"/>
    </g>
    <g id="i-toast" fill="none" stroke="#3f5228" stroke-width="2" stroke-linecap="round" stroke-linejoin="round">
      <path d="M2 3 C1 -3 3 -8 6 -10 C9 -8 10 -3 8 3 C11 4 11 8 8 9 C5 10 2 8 2 5 C2 4 2 3 2 3 Z"/>
      <path d="M5 9 L4 19"/>
      <path d="M0 22 L9 21"/>
      <path d="M24 5 C25 -1 23 -6 20 -8 C17 -6 16 -1 18 5 C15 6 15 10 18 11 C21 12 24 10 24 7 C24 6 24 5 24 5 Z"/>
      <path d="M21 11 L22 21"/>
      <path d="M17 24 L26 23"/>
      <path d="M9 5 L17 6"/>
      <path d="M13 3 L14 -1 L15 4"/>
    </g>
    <g id="i-icecream" fill="none" stroke="#3f5228" stroke-width="2" stroke-linecap="round" stroke-linejoin="round">
      <path d="M4 8 C3 3 7 -1 12 -2 C18 -3 24 1 24 7 C24 8 24 9 23 10 C16 11 9 11 4 10 C4 9 4 8 4 8 Z"/>
      <path d="M12 -2 C11 -5 13 -7 15 -6 C17 -5 16 -2 14 -2"/>
      <path d="M8 -3 C7 -5 8 -7 10 -6 C11 -6 11 -4 10 -3"/>
      <path d="M4 10 C8 22 10 30 13 38 C16 30 19 21 23 10"/>
      <path d="M5 15 C10 17 18 17 22 15"/>
      <path d="M7 22 C11 24 15 24 19 22"/>
      <path d="M10 29 C12 30 14 30 16 29"/>
    </g>
    <g id="i-gift" fill="none" stroke="#3f5228" stroke-width="2" stroke-linecap="round" stroke-linejoin="round">
      <path d="M1 13 C0 19 0 26 1 31 C10 33 21 33 30 31 C31 26 31 19 30 13 C21 11 10 11 1 13 Z"/>
      <path d="M1 20 C10 21 21 21 30 20"/>
      <path d="M15 13 C14 20 14 26 15 31"/>
      <path d="M15 12 C10 9 7 3 10 0 C13 -3 17 1 15 6 C15 9 15 11 15 12 Z"/>
      <path d="M15 12 C20 9 23 3 20 0 C17 -3 13 1 15 6"/>
      <path d="M25 8 L30 3 M27 10 L33 10"/>
    </g>
    <g id="i-key" fill="none" stroke="#3f5228" stroke-width="2" stroke-linecap="round" stroke-linejoin="round">
      <path d="M9 4 C10 -2 6 -6 1 -5 C-4 -4 -5 3 -1 6 C2 8 6 8 9 4 Z"/>
      <path d="M12 8 L33 29"/>
      <path d="M27 23 C28 22 30 22 30 24 M31 26 C32 25 34 25 34 27"/>
      <path d="M29 14 C25 12 22 14 23 18 C24 21 28 20 29 17"/>
    </g>
    <g id="i-dove" fill="none" stroke="#3f5228" stroke-width="2" stroke-linecap="round" stroke-linejoin="round">
      <path d="M-1 8 C4 2 10 1 14 6 C16 3 20 2 22 4 C20 6 20 6 20 8 C25 7 29 10 30 14 C25 12 21 13 19 15 C15 12 9 13 6 16 C2 16 -2 13 -1 8 Z"/>
      <path d="M2 8 C1 7 1 6 2 6 C3 6 3 7 2 8 Z" fill="#3f5228"/>
      <path d="M22 5 C24 3 27 3 27 5 C26 6 24 6 22 5 Z"/>
    </g>
    <g id="i-candle" fill="none" stroke="#3f5228" stroke-width="2" stroke-linecap="round" stroke-linejoin="round">
      <path d="M1 12 C0 20 0 28 2 35 C6 37 9 37 13 35 C14 28 14 20 13 12 C9 10 5 10 1 12 Z"/>
      <path d="M6 12 C5 9 6 6 6 4"/>
      <path d="M6 4 C4 1 5 -3 7 -6 C8 -3 9 1 7 4 C7 4 6 4 6 4 Z"/>
      <path d="M1 22 C5 23 9 23 13 22"/>
      <path d="M3 8 C4 9 5 9 6 8"/>
    </g>
    <g id="i-sign" fill="none" stroke="#3f5228" stroke-width="2" stroke-linecap="round" stroke-linejoin="round">
      <path d="M8 47 C7 35 8 22 9 11"/>
      <path d="M-3 11 C-2 9 -1 8 1 8 C11 6 23 7 31 9 C34 12 36 15 36 18 C34 21 31 24 27 26 C19 28 8 27 -1 25 C-3 24 -4 23 -3 21 C-4 18 -4 14 -3 11 Z"/>
      <path d="M3 13 C6 16 6 20 3 22"/>
      <path d="M12 13 C15 20 15 20 19 13 C19 20 19 20 22 13"/>
      <path d="M25 17 C28 17 30 17 32 18"/>
    </g>
    <g id="i-balloon" fill="none" stroke="#3f5228" stroke-width="2" stroke-linecap="round" stroke-linejoin="round">
      <path d="M8 4 C5 0 -1 1 -2 6 C-3 9 0 10 3 8 C1 12 4 16 8 15 C6 18 9 21 12 19 C16 21 20 17 18 13 C21 13 22 9 19 6 C21 2 17 -1 13 1 C12 -2 8 -2 8 4 Z"/>
      <path d="M8 22 L6 26 L10 26 Z"/>
      <path d="M8 26 C8 30 6 32 8 35 C10 38 7 40 9 44"/>
    </g>
    <g id="i-sprig-a" fill="none" stroke="#3f5228" stroke-width="2" stroke-linecap="round" stroke-linejoin="round">
      <path d="M1 31 C3 20 0 9 -4 0"/>
      <path d="M-2 6 C-6 2 -10 3 -13 7 C-9 9 -5 8 -2 6 Z"/>
      <path d="M0 13 C4 9 8 10 11 14 C7 16 3 15 0 13 Z"/>
      <path d="M-1 21 C-6 17 -10 18 -13 22 C-9 25 -5 24 -1 21 Z"/>
    </g>
    <g id="i-sprig-b" fill="none" stroke="#3f5228" stroke-width="2" stroke-linecap="round" stroke-linejoin="round">
      <path d="M1 25 C4 15 1 6 -5 0"/>
      <path d="M-3 5 C-8 1 -10 3 -11 7 C-7 9 -4 8 -3 5 Z"/>
      <path d="M-1 13 C4 9 7 11 8 15 C4 17 0 16 -1 13 Z"/>
    </g>
    <g id="i-swirl" fill="none" stroke="#3f5228" stroke-width="2" stroke-linecap="round" stroke-linejoin="round">
      <path d="M0 10 C-2 4 2 -1 7 1 C10 2 10 6 7 7 C5 8 3 6 4 4 C10 -1 18 2 17 9 C16 14 9 16 6 12"/>
    </g>
    <g id="i-sparkle" fill="none" stroke="#3f5228" stroke-width="2" stroke-linecap="round" stroke-linejoin="round">
      <path d="M6 -1 C6.5 3 7 5 12 6 C7 7 6.5 9 6 13 C5.5 9 5 7 0 6 C5 5 5.5 3 6 -1 Z"/>
      <path d="M15 10 C15 11 15 12 17 12 C15 13 15 13 15 15 C15 13 14 13 13 12 C14 12 15 11 15 10 Z"/>
    </g>
    <g id="i-bow" fill="none" stroke="#3f5228" stroke-width="2" stroke-linecap="round" stroke-linejoin="round">
      <path d="M9 6 C4 -1 -5 0 -3 6 C-2 10 4 10 9 6 Z"/>
      <path d="M9 6 C14 -1 23 0 21 6 C20 10 14 10 9 6 Z"/>
      <path d="M6 3 C7 2 11 2 12 3 C13 5 12 8 9 8 C6 8 5 5 6 3 Z"/>
      <path d="M8 8 C6 12 3 16 1 21"/>
      <path d="M10 8 C13 12 16 15 19 20"/>
      <path d="M1 21 L4 19 M19 20 L16 18"/>
    </g>
    <g id="i-book" fill="none" stroke="#3f5228" stroke-width="2" stroke-linecap="round" stroke-linejoin="round">
      <path d="M0 4 C6 0 12 0 16 4 L16 27 C12 23 6 23 0 27 Z"/>
      <path d="M32 4 C26 0 20 0 16 4 L16 27 C20 23 26 23 32 27 Z"/>
      <path d="M4 8 C7 7 9 7 11 8"/>
      <path d="M4 13 C7 12 9 12 11 13"/>
      <path d="M21 8 C23 7 26 7 28 8"/>
      <path d="M18 18 C17 15 19 13 21 14 C22 11 25 12 25 15 C25 17 22 19 21 20 C20 19 18 19 18 18 Z"/>
    </g>
    <g id="i-teacup" fill="none" stroke="#3f5228" stroke-width="2" stroke-linecap="round" stroke-linejoin="round">
      <path d="M1 9 C0 6 1 5 3 5 C9 4 16 4 21 5 C23 5 24 6 23 9 C23 14 21 20 18 22 C14 25 8 25 5 22 C2 20 1 14 1 9 Z"/>
      <path d="M22 10 C27 9 29 14 26 17 C24 19 22 18 22 16"/>
      <path d="M9 -2 C8 -4 9 -6 8 -8"/>
      <path d="M14 -2 C13 -4 14 -6 13 -9"/>
    </g>
    <g id="i-veil" fill="none" stroke="#3f5228" stroke-width="2" stroke-linecap="round" stroke-linejoin="round">
      <path d="M2 3 C6 -3 18 -3 23 4"/>
      <path d="M2 3 C-2 12 1 22 -5 32 C-2 32 1 30 3 32"/>
      <path d="M23 4 C27 12 24 22 30 32 C27 32 25 30 22 32"/>
      <path d="M2 3 C7 8 18 8 23 4"/>
      <path d="M-4 30 C-1 28 2 30 4 28 C7 30 9 28 11 30 C14 28 16 30 18 28 C21 30 23 28 26 30"/>
      <path d="M13 -3 C12 -5 13 -7 15 -6 C17 -5 16 -3 14 -2 C13 -2 13 -2 13 -3 Z"/>
    </g>
    <g id="i-crown" fill="none" stroke="#3f5228" stroke-width="2" stroke-linecap="round" stroke-linejoin="round">
      <path d="M0 16 C-1 12 -1 8 0 3 C3 6 5 8 7 9 C9 5 11 2 13 -2 C15 2 17 5 19 9 C21 8 23 6 26 3 C27 8 27 12 26 16 C18 18 8 18 0 16 Z"/>
      <path d="M0 16 C8 18 18 18 26 16 L26 20 C18 22 8 22 0 20 Z"/>
      <path d="M13 -4 C12 -6 13 -8 15 -7 C16 -6 15 -4 13 -4 Z"/>
    </g>
    <g id="i-monogram" fill="none" stroke="#3f5228" stroke-width="2" stroke-linecap="round" stroke-linejoin="round">
      <path d="M3 21 C-2 16 1 8 6 9 C10 10 9 15 5 15 C9 20 5 27 0 24 C-2 23 -2 22 -1 20"/>
      <path d="M17 22 C13 18 14 8 18 4 C22 0 25 5 21 8 C25 8 26 15 21 18 C25 19 23 25 19 24"/>
    </g>
    <g id="i-dot" fill="#3f5228" stroke="none">
      <path d="M0 -2 C1 -2 2 -1 2 0 C2 1 1 2 0 2 C-1 2 -2 1 -2 0 C-2 -1 -1 -2 0 -2 Z"/>
    </g>
  </defs>

  <g opacity="0.42">
    <use href="#i-heart-a" x="60" y="40"/>
    <use href="#i-rings" x="180" y="30" transform="rotate(-6 190 40)"/>
    <use href="#i-envelope-heart" x="300" y="50" transform="rotate(4 315 60)"/>
    <use href="#i-sprig-a" x="420" y="20"/>
    <use href="#i-camera" x="500" y="35"/>
    <use href="#i-blossom" x="610" y="55"/>
    <use href="#i-bells" x="670" y="20"/>
    <use href="#i-heart-b" x="770" y="45" transform="rotate(8 780 55)"/>
    <use href="#i-sparkle" x="850" y="30"/>
    <use href="#i-ring-sparkle" x="920" y="50"/>

    <use href="#i-dress" x="30" y="120"/>
    <use href="#i-sprig-b" x="130" y="140"/>
    <use href="#i-cupcake" x="200" y="130"/>
    <use href="#i-bow" x="280" y="150"/>
    <use href="#i-rose" x="350" y="120"/>
    <use href="#i-key" x="430" y="150" transform="rotate(-10 445 160)"/>
    <use href="#i-blossom" x="510" y="145"/>
    <use href="#i-cake" x="570" y="120"/>
    <use href="#i-dot" x="650" y="140"/>
    <use href="#i-shoe" x="700" y="150"/>
    <use href="#i-sprig-a" x="800" y="120" transform="scale(-1,1)"/>
    <use href="#i-envelope-heart" x="870" y="140" transform="scale(0.9)"/>
    <use href="#i-sparkle" x="950" y="120"/>

    <use href="#i-bouquet" x="50" y="240"/>
    <use href="#i-swirl" x="150" y="260"/>
    <use href="#i-champagne" x="230" y="250"/>
    <use href="#i-heart-a" x="300" y="270" transform="rotate(-5 314 286)"/>
    <use href="#i-book" x="380" y="255"/>
    <use href="#i-blossom" x="460" y="280"/>
    <use href="#i-icecream" x="520" y="250"/>
    <use href="#i-dot" x="600" y="270"/>
    <use href="#i-dove" x="650" y="255"/>
    <use href="#i-ring-box" x="740" y="250"/>
    <use href="#i-sprig-b" x="840" y="270" transform="scale(-1,1)"/>
    <use href="#i-heart-b" x="910" y="250"/>

    <use href="#i-teacup" x="20" y="370"/>
    <use href="#i-monogram" x="110" y="360"/>
    <use href="#i-blossom" x="200" y="390"/>
    <use href="#i-gift" x="260" y="365"/>
    <use href="#i-sparkle" x="340" y="380"/>
    <use href="#i-candle" x="390" y="360"/>
    <use href="#i-rings" x="460" y="390" transform="rotate(6 470 400)"/>
    <use href="#i-sprig-a" x="550" y="360"/>
    <use href="#i-veil" x="620" y="375"/>
    <use href="#i-dot" x="700" y="390"/>
    <use href="#i-rose" x="750" y="360" transform="scale(-1,1)"/>
    <use href="#i-envelope-heart" x="830" y="380" transform="rotate(-4 848 392) scale(0.85)"/>
    <use href="#i-sparkle" x="920" y="365"/>

    <use href="#i-sign" x="30" y="470"/>
    <use href="#i-blossom" x="150" y="500"/>
    <use href="#i-heart-a" x="220" y="480"/>
    <use href="#i-letter" x="280" y="470"/>
    <use href="#i-sprig-b" x="370" y="500"/>
    <use href="#i-toast" x="440" y="490"/>
    <use href="#i-dot" x="510" y="480"/>
    <use href="#i-crown" x="560" y="500"/>
    <use href="#i-bells" x="650" y="470" transform="scale(0.85)"/>
    <use href="#i-blossom" x="740" y="495"/>
    <use href="#i-key" x="810" y="480" transform="rotate(12 825 490)"/>
    <use href="#i-sparkle" x="890" y="500"/>
    <use href="#i-heart-b" x="950" y="480"/>

    <use href="#i-balloon" x="60" y="600"/>
    <use href="#i-sprig-a" x="160" y="620" transform="scale(-1,1)"/>
    <use href="#i-bouquet" x="230" y="600"/>
    <use href="#i-dot" x="320" y="620"/>
    <use href="#i-cupcake" x="370" y="600"/>
    <use href="#i-swirl" x="450" y="620"/>
    <use href="#i-camera" x="520" y="600"/>
    <use href="#i-blossom" x="610" y="625"/>
    <use href="#i-dress" x="660" y="600"/>
    <use href="#i-sparkle" x="760" y="620"/>
    <use href="#i-rose" x="810" y="600"/>
    <use href="#i-envelope-heart" x="890" y="610" transform="scale(0.9)"/>

    <use href="#i-shoe" x="40" y="720"/>
    <use href="#i-heart-a" x="120" y="740" transform="rotate(-8 134 756)"/>
    <use href="#i-sprig-b" x="200" y="720"/>
    <use href="#i-cake" x="260" y="700"/>
    <use href="#i-dot" x="340" y="740"/>
    <use href="#i-ring-sparkle" x="390" y="720"/>
    <use href="#i-book" x="470" y="710"/>
    <use href="#i-blossom" x="550" y="735"/>
    <use href="#i-gift" x="600" y="715"/>
    <use href="#i-dove" x="680" y="720"/>
    <use href="#i-sprig-a" x="760" y="740"/>
    <use href="#i-champagne" x="840" y="715"/>
    <use href="#i-sparkle" x="920" y="735"/>

    <use href="#i-monogram" x="30" y="840"/>
    <use href="#i-blossom" x="120" y="860"/>
    <use href="#i-bow" x="180" y="840"/>
    <use href="#i-heart-b" x="260" y="855"/>
    <use href="#i-candle" x="320" y="835"/>
    <use href="#i-dot" x="400" y="860"/>
    <use href="#i-teacup" x="440" y="840"/>
    <use href="#i-rose" x="520" y="855" transform="scale(-1,1)"/>
    <use href="#i-veil" x="590" y="835"/>
    <use href="#i-sprig-b" x="680" y="860"/>
    <use href="#i-key" x="740" y="840"/>
    <use href="#i-blossom" x="820" y="865"/>
    <use href="#i-toast" x="880" y="840"/>
    <use href="#i-sparkle" x="960" y="860"/>

    <use href="#i-envelope-heart" x="70" y="950" transform="rotate(5 88 962)"/>
    <use href="#i-sprig-a" x="180" y="940"/>
    <use href="#i-rings" x="260" y="960"/>
    <use href="#i-blossom" x="340" y="945"/>
    <use href="#i-icecream" x="400" y="960"/>
    <use href="#i-dot" x="480" y="940"/>
    <use href="#i-bouquet" x="530" y="950"/>
    <use href="#i-crown" x="620" y="955"/>
    <use href="#i-heart-a" x="690" y="940"/>
    <use href="#i-sprig-b" x="770" y="960" transform="scale(-1,1)"/>
    <use href="#i-balloon" x="850" y="940"/>
    <use href="#i-sparkle" x="940" y="960"/>
  </g>
</svg>
